<svg width="153" height="18" viewBox="0 0 153 18" fill="none" xmlns="http://www.w3.org/2000/svg">
<path d="M14.096 17L10.832 11.12C12.32 10.592 14.024 9.104 14.024 6.32C14.024 3.344 12.008 0.991999 8.456 0.991999H0.44V17H4.568V11.624H6.68L9.368 17H14.096ZM7.832 8.024H4.568V4.592H7.832C8.912 4.592 9.824 5.216 9.824 6.296C9.824 7.424 8.912 8.024 7.832 8.024ZM28.2832 17V13.4H20.6752V10.688H28.1152V7.088H20.6752V4.592H28.2832V0.991999H16.5472V17H28.2832ZM46.472 17L40.424 0.991999H35.24L29.216 17H33.896L34.688 14.696H41L41.792 17H46.472ZM39.872 11.096H35.792L37.832 5.072L39.872 11.096ZM54.9689 17.288C58.8329 17.288 60.9209 15.056 61.9529 12.992L58.4009 11.312C57.8729 12.584 56.5049 13.64 54.9689 13.64C52.3529 13.64 50.5049 11.624 50.5049 9.008C50.5049 6.392 52.3529 4.376 54.9689 4.376C56.5049 4.376 57.8729 5.432 58.4009 6.704L61.9529 5.024C60.8969 2.912 58.8329 0.727999 54.9689 0.727999C50.0489 0.727999 46.3049 4.064 46.3049 9.008C46.3049 13.928 50.0489 17.288 54.9689 17.288ZM71.6821 17V4.592H76.1461V0.991999H63.0661V4.592H67.5541V17H71.6821ZM88.8596 17V11.624H92.7476C96.3476 11.624 98.3156 9.2 98.3156 6.32C98.3156 3.416 96.3476 0.991999 92.7476 0.991999H84.7316V17H88.8596ZM92.1956 8.024H88.8596V4.592H92.1956C93.2996 4.592 94.1156 5.216 94.1156 6.32C94.1156 7.4 93.2996 8.024 92.1956 8.024ZM104.521 17V0.991999H100.393V17H104.521ZM119.569 17V13.4H112.561L119.401 4.28V0.991999H107.137V4.592H113.953L107.137 13.712V17H119.569ZM134.106 17V13.4H127.098L133.938 4.28V0.991999H121.674V4.592H128.49L121.674 13.712V17H134.106ZM152.267 17L146.219 0.991999H141.035L135.011 17H139.691L140.483 14.696H146.795L147.587 17H152.267ZM145.667 11.096H141.587L143.627 5.072L145.667 11.096Z" fill="#181818"/>
</svg>
