<svg width="260" height="15" viewBox="0 0 260 15" fill="none" xmlns="http://www.w3.org/2000/svg">
<path d="M4.608 11.192C6.016 11.192 6.848 10.616 7.44 9.848L6.64 9.112C6.128 9.8 5.472 10.12 4.672 10.12C3.024 10.12 2 8.84 2 7.128C2 5.416 3.024 4.152 4.672 4.152C5.472 4.152 6.128 4.456 6.64 5.16L7.44 4.424C6.848 3.656 6.016 3.08 4.608 3.08C2.304 3.08 0.752 4.84 0.752 7.128C0.752 9.432 2.304 11.192 4.608 11.192ZM15.1539 11V5.688C15.1539 3.816 13.7939 3.08 12.1619 3.08C10.8979 3.08 9.90588 3.496 9.07388 4.36L9.63388 5.192C10.3219 4.456 11.0739 4.12 12.0019 4.12C13.1219 4.12 13.9539 4.712 13.9539 5.752V7.144C13.3299 6.424 12.4499 6.088 11.3939 6.088C10.0819 6.088 8.68988 6.904 8.68988 8.632C8.68988 10.312 10.0819 11.192 11.3939 11.192C12.4339 11.192 13.3139 10.824 13.9539 10.12V11H15.1539ZM11.8259 10.328C10.7059 10.328 9.92188 9.624 9.92188 8.648C9.92188 7.656 10.7059 6.952 11.8259 6.952C12.6739 6.952 13.4899 7.272 13.9539 7.912V9.368C13.4899 10.008 12.6739 10.328 11.8259 10.328ZM25.4474 11V3.272H23.8474L21.5114 9L19.1434 3.272H17.5594V11H18.7594V4.936L21.2874 11H21.7354L24.2474 4.936V11H25.4474ZM33.8726 11V5.688C33.8726 3.816 32.5126 3.08 30.8806 3.08C29.6166 3.08 28.6246 3.496 27.7926 4.36L28.3526 5.192C29.0406 4.456 29.7926 4.12 30.7206 4.12C31.8406 4.12 32.6726 4.712 32.6726 5.752V7.144C32.0486 6.424 31.1686 6.088 30.1126 6.088C28.8006 6.088 27.4086 6.904 27.4086 8.632C27.4086 10.312 28.8006 11.192 30.1126 11.192C31.1526 11.192 32.0326 10.824 32.6726 10.12V11H33.8726ZM30.5446 10.328C29.4246 10.328 28.6406 9.624 28.6406 8.648C28.6406 7.656 29.4246 6.952 30.5446 6.952C31.3926 6.952 32.2086 7.272 32.6726 7.912V9.368C32.2086 10.008 31.3926 10.328 30.5446 10.328ZM37.4301 11L39.3181 8.008H41.4301V11H42.6301V3.272H38.5501C36.9821 3.272 36.1021 4.328 36.1021 5.64C36.1021 6.936 36.9341 7.816 38.0861 7.96L36.0221 11H37.4301ZM38.6781 6.952C37.7981 6.952 37.3341 6.408 37.3341 5.64C37.3341 4.872 37.8301 4.328 38.6781 4.328H41.4301V6.952H38.6781ZM53.4891 11C54.9131 11 55.7451 10.152 55.7451 8.904C55.7451 8.024 55.1211 7.208 54.3371 7.016C54.9931 6.808 55.5851 6.184 55.5851 5.256C55.5851 4.088 54.7691 3.272 53.4091 3.272H49.1531V11H53.4891ZM53.2491 9.944H50.3531V7.56H53.2491C54.0651 7.56 54.4971 8.136 54.4971 8.76C54.4971 9.496 54.0171 9.944 53.2491 9.944ZM53.2011 6.504H50.3531V4.328H53.2011C53.9371 4.328 54.3531 4.76 54.3531 5.432C54.3531 6.04 53.9531 6.504 53.2011 6.504ZM64.8125 11L61.3725 6.776L64.7965 3.272H63.2765L59.2125 7.384V3.272H58.0125V11H59.2125V8.792L60.4925 7.528L63.2765 11H64.8125ZM65.7993 14.024C66.0233 14.088 66.4233 14.136 66.6793 14.136C67.7033 14.12 68.4873 13.688 68.9513 12.568L72.8233 3.272H71.5113L68.9513 9.608L66.3753 3.272H65.0793L68.3113 11.08L67.7993 12.248C67.5273 12.888 67.1753 13.064 66.6473 13.064C66.4553 13.064 66.1673 13.016 65.9913 12.936L65.7993 14.024ZM77.483 11.192C78.891 11.192 79.723 10.616 80.315 9.848L79.515 9.112C79.003 9.8 78.347 10.12 77.547 10.12C75.899 10.12 74.875 8.84 74.875 7.128C74.875 5.416 75.899 4.152 77.547 4.152C78.347 4.152 79.003 4.456 79.515 5.16L80.315 4.424C79.723 3.656 78.891 3.08 77.483 3.08C75.179 3.08 73.627 4.84 73.627 7.128C73.627 9.432 75.179 11.192 77.483 11.192ZM83.1969 11V7.544H87.2289V11H88.4289V3.272H87.2289V6.488H83.1969V3.272H81.9969V11H83.1969ZM96.857 11V5.688C96.857 3.816 95.497 3.08 93.865 3.08C92.601 3.08 91.609 3.496 90.777 4.36L91.337 5.192C92.025 4.456 92.777 4.12 93.705 4.12C94.825 4.12 95.657 4.712 95.657 5.752V7.144C95.033 6.424 94.153 6.088 93.097 6.088C91.785 6.088 90.393 6.904 90.393 8.632C90.393 10.312 91.785 11.192 93.097 11.192C94.137 11.192 95.017 10.824 95.657 10.12V11H96.857ZM93.529 10.328C92.409 10.328 91.625 9.624 91.625 8.648C91.625 7.656 92.409 6.952 93.529 6.952C94.377 6.952 95.193 7.272 95.657 7.912V9.368C95.193 10.008 94.377 10.328 93.529 10.328ZM100.414 11L102.303 8.008H104.415V11H105.615V3.272H101.535C99.9665 3.272 99.0865 4.328 99.0865 5.64C99.0865 6.936 99.9185 7.816 101.071 7.96L99.0065 11H100.414ZM101.663 6.952C100.783 6.952 100.319 6.408 100.319 5.64C100.319 4.872 100.815 4.328 101.663 4.328H104.415V6.952H101.663ZM118.57 11V3.272H112.138V11H113.338V4.328H117.37V11H118.57ZM122.118 11L126.198 4.984V11H127.398V3.272H126.214L122.166 9.176V3.272H120.966V11H122.118ZM135.922 12.968H137.122V9.944H136.226V3.272H135.026V9.944H130.994V3.272H129.794V11H135.922V12.968ZM144.891 12.968H146.091V9.944H145.195V3.272H143.995V9.944H139.963V3.272H138.763V11H144.891V12.968ZM153.763 11V5.688C153.763 3.816 152.403 3.08 150.771 3.08C149.507 3.08 148.515 3.496 147.683 4.36L148.243 5.192C148.931 4.456 149.683 4.12 150.611 4.12C151.731 4.12 152.563 4.712 152.563 5.752V7.144C151.939 6.424 151.059 6.088 150.003 6.088C148.691 6.088 147.299 6.904 147.299 8.632C147.299 10.312 148.691 11.192 150.003 11.192C151.043 11.192 151.923 10.824 152.563 10.12V11H153.763ZM150.435 10.328C149.315 10.328 148.531 9.624 148.531 8.648C148.531 7.656 149.315 6.952 150.435 6.952C151.283 6.952 152.099 7.272 152.563 7.912V9.368C152.099 10.008 151.283 10.328 150.435 10.328ZM164.63 11C166.054 11 166.886 10.152 166.886 8.904C166.886 8.024 166.262 7.208 165.478 7.016C166.134 6.808 166.726 6.184 166.726 5.256C166.726 4.088 165.91 3.272 164.55 3.272H160.294V11H164.63ZM164.39 9.944H161.494V7.56H164.39C165.206 7.56 165.638 8.136 165.638 8.76C165.638 9.496 165.158 9.944 164.39 9.944ZM164.342 6.504H161.494V4.328H164.342C165.078 4.328 165.494 4.76 165.494 5.432C165.494 6.04 165.094 6.504 164.342 6.504ZM172.529 11.192C174.881 11.192 176.353 9.368 176.353 7.128C176.353 4.888 174.881 3.08 172.529 3.08C170.177 3.08 168.705 4.888 168.705 7.128C168.705 9.368 170.177 11.192 172.529 11.192ZM172.529 10.12C170.881 10.12 169.953 8.712 169.953 7.128C169.953 5.56 170.881 4.152 172.529 4.152C174.177 4.152 175.089 5.56 175.089 7.128C175.089 8.712 174.177 10.12 172.529 10.12ZM186.77 11C188.194 11 189.026 10.152 189.026 8.904C189.026 8.024 188.402 7.208 187.618 7.016C188.274 6.808 188.866 6.184 188.866 5.256C188.866 4.088 188.05 3.272 186.69 3.272H182.434V11H186.77ZM186.53 9.944H183.634V7.56H186.53C187.346 7.56 187.778 8.136 187.778 8.76C187.778 9.496 187.298 9.944 186.53 9.944ZM186.482 6.504H183.634V4.328H186.482C187.218 4.328 187.634 4.76 187.634 5.432C187.634 6.04 187.234 6.504 186.482 6.504ZM194.702 11.192C196.11 11.192 196.942 10.616 197.534 9.848L196.734 9.112C196.222 9.8 195.566 10.12 194.766 10.12C193.118 10.12 192.094 8.84 192.094 7.128C192.094 5.416 193.118 4.152 194.766 4.152C195.566 4.152 196.222 4.456 196.734 5.16L197.534 4.424C196.942 3.656 196.11 3.08 194.702 3.08C192.398 3.08 190.846 4.84 190.846 7.128C190.846 9.432 192.398 11.192 194.702 11.192ZM202.704 11.192C203.968 11.192 205.008 10.776 205.776 10.008L205.2 9.224C204.592 9.848 203.696 10.2 202.816 10.2C201.152 10.2 200.128 8.984 200.032 7.528H206.288V7.224C206.288 4.904 204.912 3.08 202.576 3.08C200.368 3.08 198.768 4.888 198.768 7.128C198.768 9.544 200.416 11.192 202.704 11.192ZM205.104 6.648H200.032C200.096 5.464 200.912 4.072 202.56 4.072C204.32 4.072 205.088 5.496 205.104 6.648ZM207.319 11.192C208.807 11.192 209.639 10.104 209.991 7.224L210.343 4.328H213.463V11H214.663V3.272H209.287L208.791 7.08C208.487 9.368 208.039 10.2 207.319 10.2V11.192ZM220.547 11.192C221.811 11.192 222.851 10.776 223.619 10.008L223.043 9.224C222.435 9.848 221.539 10.2 220.659 10.2C218.995 10.2 217.971 8.984 217.875 7.528H224.131V7.224C224.131 4.904 222.755 3.08 220.419 3.08C218.211 3.08 216.611 4.888 216.611 7.128C216.611 9.544 218.259 11.192 220.547 11.192ZM222.947 6.648H217.875C217.939 5.464 218.755 4.072 220.403 4.072C222.163 4.072 222.931 5.496 222.947 6.648ZM227.275 11V7.544H231.307V11H232.507V3.272H231.307V6.488H227.275V3.272H226.075V11H227.275ZM236.103 11V7.544H240.135V11H241.335V3.272H240.135V6.488H236.103V3.272H234.903V11H236.103ZM247.107 11.192C249.459 11.192 250.931 9.368 250.931 7.128C250.931 4.888 249.459 3.08 247.107 3.08C244.755 3.08 243.283 4.888 243.283 7.128C243.283 9.368 244.755 11.192 247.107 11.192ZM247.107 10.12C245.459 10.12 244.531 8.712 244.531 7.128C244.531 5.56 245.459 4.152 247.107 4.152C248.755 4.152 249.667 5.56 249.667 7.128C249.667 8.712 248.755 10.12 247.107 10.12ZM254.039 11L258.12 4.984V11H259.32V3.272H258.136L254.088 9.176V3.272H252.888V11H254.039ZM258.904 0.983999L258.312 0.471999C257.816 1.192 257.032 1.624 256.104 1.624C255.16 1.624 254.392 1.176 253.88 0.471999L253.288 0.983999C253.944 1.848 254.968 2.392 256.104 2.392C257.256 2.392 258.264 1.848 258.904 0.983999Z" fill="#7B7B7B"/>
</svg>
